<?xml version="1.0" standalone="no"?>
<!DOCTYPE svg PUBLIC "-//W3C//DTD SVG 20010904//EN"
 "http://www.w3.org/TR/2001/REC-SVG-20010904/DTD/svg10.dtd">
<svg version="1.0" xmlns="http://www.w3.org/2000/svg"
 width="1515.000000pt" height="1515.000000pt" viewBox="0 0 1515.000000 1515.000000"
 preserveAspectRatio="xMidYMid meet">
<metadata>
Created by potrace 1.14, written by Peter Selinger 2001-2017
</metadata>
<g transform="translate(0.000000,1515.000000) scale(0.100000,-0.100000)"
fill="#000000" stroke="none">
<path d="M8839 14516 c-2 -2 -33 -6 -69 -10 -36 -3 -76 -8 -90 -11 -14 -3 -38
-7 -55 -9 -41 -5 -143 -25 -180 -36 -16 -5 -41 -11 -55 -14 -146 -25 -423
-143 -578 -247 -233 -156 -425 -381 -542 -634 -34 -71 -93 -237 -105 -290 -26
-119 -37 -174 -40 -195 -2 -14 -6 -45 -10 -70 -12 -84 -15 -135 -21 -360 -3
-124 -7 -226 -8 -227 -1 -2 -11 5 -22 15 -145 134 -425 321 -601 402 -37 17
-76 35 -85 40 -29 16 -216 81 -277 96 -193 48 -320 62 -511 58 -80 -1 -156 -5
-170 -8 -14 -3 -41 -9 -60 -12 -19 -3 -62 -13 -95 -21 -33 -8 -67 -16 -75 -18
-69 -13 -311 -125 -384 -177 -127 -90 -238 -190 -315 -284 -75 -92 -204 -321
-216 -384 -4 -19 -2 -19 48 1 181 72 513 192 563 204 10 2 69 18 129 35 61 17
124 33 140 35 17 3 53 10 80 15 201 39 446 45 608 15 98 -18 189 -40 222 -54
11 -5 61 -23 110 -41 101 -36 333 -153 451 -226 84 -52 84 -56 -11 -68 -27 -3
-61 -8 -75 -11 -13 -2 -42 -7 -65 -10 -328 -47 -671 -167 -884 -310 -94 -63
-116 -81 -211 -175 -100 -98 -180 -204 -230 -305 -8 -16 -19 -33 -25 -37 -5
-4 -6 -8 -1 -8 4 0 2 -10 -7 -23 -26 -41 -87 -214 -117 -338 -45 -187 -53
-250 -53 -474 -1 -176 8 -305 27 -408 2 -12 9 -51 16 -87 15 -86 56 -255 87
-360 31 -109 165 -511 169 -508 3 3 10 56 19 138 4 30 8 70 10 89 3 18 7 65
10 105 3 39 8 82 10 96 7 47 24 165 29 195 6 33 53 258 61 290 3 11 7 31 10
45 11 62 108 371 135 435 5 11 26 61 46 110 64 152 180 363 263 475 189 257
367 427 549 526 79 42 190 91 222 98 14 3 41 10 60 16 37 11 190 25 190 17 0
-2 -13 -33 -29 -69 -64 -141 -60 -221 18 -308 17 -19 59 -75 93 -125 114 -168
138 -188 209 -179 73 10 103 -15 114 -93 4 -21 10 -63 15 -93 15 -94 22 -166
35 -380 3 -58 8 -125 10 -150 27 -315 27 -1399 0 -1710 -2 -19 -6 -82 -10
-140 -4 -58 -8 -123 -10 -145 -2 -22 -7 -76 -10 -120 -7 -85 -10 -117 -20
-205 -3 -30 -8 -73 -10 -95 -3 -22 -7 -56 -10 -75 -2 -19 -7 -53 -10 -75 -2
-22 -7 -62 -11 -90 -4 -27 -8 -61 -9 -75 -1 -14 -5 -43 -9 -65 -4 -22 -8 -53
-10 -70 -4 -30 -34 -219 -42 -265 -2 -14 -8 -52 -14 -85 -10 -63 -45 -252 -55
-295 -3 -14 -8 -38 -11 -55 -3 -16 -14 -70 -26 -120 -11 -49 -26 -115 -33
-145 -25 -112 -76 -290 -132 -465 -17 -53 -86 -240 -108 -290 -55 -129 -77
-176 -135 -290 -81 -157 -185 -330 -220 -365 -3 -3 -17 -23 -32 -45 -33 -50
-126 -147 -198 -207 -86 -71 -163 -116 -299 -175 -157 -67 -242 -117 -306
-180 -62 -61 -100 -115 -129 -186 -24 -59 -33 -70 -86 -107 -19 -13 -37 -27
-40 -30 -3 -3 -29 -23 -58 -44 -46 -34 -95 -96 -75 -96 4 0 2 -5 -4 -11 -7 -7
-8 -21 -2 -42 5 -17 5 -35 1 -39 -8 -8 -74 -15 -222 -23 -103 -5 -159 -14
-184 -27 -11 -6 -78 -54 -150 -107 -189 -140 -383 -273 -576 -396 -193 -123
-420 -237 -590 -297 -127 -45 -245 -68 -350 -70 -124 -2 -165 12 -186 60 -19
43 -24 179 -11 267 18 120 89 305 177 460 34 60 146 227 169 252 12 12 21 26
21 31 0 5 6 9 13 9 13 0 144 12 192 18 17 1 59 6 95 10 36 3 81 8 100 10 102
12 148 17 180 20 42 4 155 16 190 20 14 1 54 6 90 9 36 4 76 9 90 11 14 2 50
6 80 9 141 14 177 18 200 21 14 2 59 7 100 10 41 3 86 8 100 10 14 2 54 7 90
10 36 3 81 7 100 10 19 2 64 7 100 10 36 3 81 8 100 10 19 3 62 7 95 10 33 3
80 8 105 11 25 3 53 6 63 5 10 0 38 19 62 43 41 39 45 47 45 90 0 55 -16 90
-62 132 -18 17 -41 43 -51 58 -11 15 -31 33 -45 39 -15 6 -29 14 -32 17 -3 3
-30 18 -60 34 -62 33 -87 47 -181 99 -41 23 -81 38 -105 39 -38 1 -162 -8
-214 -16 -14 -3 -54 -7 -90 -11 -36 -4 -81 -9 -100 -11 -19 -2 -62 -6 -95 -10
-33 -3 -71 -7 -85 -8 -14 -2 -63 -6 -110 -11 -47 -4 -93 -9 -103 -11 -10 -2
-48 -6 -85 -9 -37 -4 -93 -10 -124 -14 -50 -7 -56 -6 -48 8 11 22 316 314 486
466 12 11 53 48 91 82 37 34 78 70 89 80 21 18 109 94 150 130 12 10 43 36 70
58 26 22 52 45 58 50 17 15 132 114 208 178 61 51 72 57 115 57 27 0 134 0
238 0 105 0 206 0 225 1 19 1 42 1 50 1 8 0 203 -3 434 -6 464 -6 450 -8 522
60 22 22 77 73 121 114 44 41 85 86 92 99 34 63 21 129 -37 183 -20 20 -45 47
-55 62 -40 58 2 56 -944 57 -477 1 -904 -1 -948 -5 -44 -3 -123 -8 -175 -11
-52 -3 -115 -8 -140 -10 -25 -2 -81 -7 -125 -10 -136 -10 -178 -14 -235 -19
-62 -7 -167 -18 -190 -21 -8 -1 -46 -5 -85 -10 -38 -4 -77 -9 -86 -10 -9 -2
-40 -6 -70 -10 -30 -4 -57 -9 -60 -11 -18 -11 -183 480 -214 634 -2 9 -10 47
-19 83 -8 37 -17 78 -20 90 -15 77 -35 191 -41 232 -4 27 -8 59 -11 70 -2 12
-7 49 -10 82 -3 33 -8 74 -10 90 -18 159 -25 665 -11 840 13 156 31 300 53
420 8 44 17 96 20 115 15 101 90 395 142 555 93 284 265 676 380 865 12 19 26
44 32 55 5 11 24 43 42 72 18 29 51 81 72 115 22 35 57 86 78 115 21 29 38 56
38 62 0 5 3 11 8 13 4 2 41 48 82 103 194 258 478 560 699 744 35 29 70 58 77
64 6 7 24 21 40 32 15 11 32 25 38 30 67 64 550 388 576 387 3 0 16 8 30 18
14 10 57 33 95 53 39 19 79 42 90 51 20 15 20 15 -2 17 -25 2 -23 1 -78 17
-98 27 -350 36 -480 17 -33 -4 -72 -9 -88 -10 -15 -1 -30 -5 -34 -8 -3 -4 -16
-7 -27 -7 -30 0 -275 -64 -386 -100 -79 -26 -108 -42 -170 -93 -126 -103 -263
-231 -404 -376 -112 -116 -107 -110 -186 -201 -36 -41 -67 -77 -70 -80 -9 -9
-154 -193 -186 -235 -16 -22 -33 -44 -37 -50 -70 -84 -308 -461 -383 -605 -15
-30 -37 -68 -49 -85 -11 -16 -20 -32 -19 -35 0 -3 -26 -61 -59 -130 -86 -184
-95 -202 -150 -345 -43 -108 -157 -445 -151 -445 2 0 -1 -12 -7 -27 -6 -16
-12 -35 -14 -43 -2 -8 -10 -42 -19 -75 -9 -33 -19 -71 -22 -85 -3 -14 -7 -33
-10 -42 -3 -10 -7 -30 -10 -45 -3 -16 -9 -44 -14 -63 -14 -55 -54 -287 -65
-375 -4 -27 -8 -61 -10 -75 -10 -76 -24 -217 -31 -325 -5 -82 -5 -555 0 -635
9 -137 27 -318 41 -415 17 -112 25 -163 30 -185 4 -14 7 -36 9 -50 18 -148
152 -644 221 -821 14 -34 23 -64 21 -67 -3 -2 -44 -12 -93 -23 -104 -22 -292
-68 -313 -76 -8 -3 -20 -7 -26 -8 -56 -13 -318 -99 -379 -126 -11 -5 -45 -18
-75 -29 -75 -29 -304 -142 -308 -152 -2 -4 -8 -8 -13 -8 -8 0 -116 -67 -129
-80 -3 -3 -31 -24 -62 -48 -150 -114 -266 -272 -320 -436 -23 -70 -33 -243
-18 -316 5 -25 12 -56 14 -70 15 -72 88 -189 184 -295 54 -60 114 -121 132
-135 19 -14 45 -35 59 -46 47 -39 67 -42 257 -43 l142 -1 28 -29 c16 -15 40
-40 53 -55 13 -14 67 -51 120 -82 53 -31 117 -70 143 -86 l47 -29 -29 -52
c-57 -106 -148 -343 -164 -432 -3 -14 -10 -53 -17 -88 -17 -87 -18 -302 -3
-355 7 -23 13 -44 13 -47 4 -71 96 -237 180 -324 9 -10 35 -39 59 -65 110
-119 285 -207 462 -234 57 -8 256 -8 336 1 51 6 125 20 218 42 44 10 186 60
261 91 250 103 437 219 877 540 342 250 439 318 553 385 l100 60 7 -42 c10
-55 51 -119 77 -119 6 0 11 -4 11 -10 0 -19 64 -82 104 -102 32 -17 59 -21
126 -21 93 0 164 17 263 61 l63 29 29 -23 c15 -12 48 -28 72 -35 24 -6 42 -14
39 -16 -2 -3 -35 -6 -73 -8 -79 -4 -192 -13 -245 -20 -123 -16 -136 -18 -210
-31 -287 -48 -614 -155 -734 -239 -118 -84 -157 -182 -109 -276 21 -39 93 -98
128 -104 49 -8 117 -14 117 -10 0 2 -21 17 -47 33 -114 70 -153 147 -113 222
8 14 46 50 96 89 51 40 245 113 363 137 14 3 28 7 31 9 4 2 22 7 41 10 19 3
59 12 89 20 69 17 252 54 305 61 22 3 51 7 65 10 14 2 63 7 109 11 l84 6 -70
-89 c-38 -49 -80 -105 -93 -124 -13 -19 -27 -37 -30 -40 -17 -16 -230 -335
-270 -405 -157 -274 -198 -410 -162 -541 12 -43 72 -120 94 -121 13 -1 45 -6
123 -18 l40 -7 -45 32 c-52 37 -76 61 -110 110 -20 28 -24 46 -25 105 0 81 15
124 108 310 49 97 232 386 277 437 6 7 36 47 67 88 30 41 58 77 62 80 3 3 33
41 66 85 91 120 67 110 255 109 319 -3 456 -16 590 -55 78 -23 80 -24 104 -72
35 -69 60 -73 72 -11 25 133 -172 198 -623 205 -62 1 -113 6 -113 11 0 5 4 7
9 4 9 -6 98 18 146 39 17 7 64 28 105 45 41 18 90 41 107 52 38 23 42 21 107
-50 31 -33 71 -64 105 -80 49 -22 69 -25 166 -25 97 0 120 3 196 30 47 17 125
51 172 75 48 25 87 42 87 37 0 -14 102 -109 117 -109 8 0 28 -7 45 -16 21 -11
57 -16 112 -16 89 0 143 11 241 48 11 4 22 7 25 7 3 -1 54 22 115 51 l109 52
56 -56 c43 -44 68 -60 115 -75 33 -10 74 -18 92 -18 49 1 162 24 169 34 3 5
12 9 21 9 9 0 24 7 34 16 17 15 20 15 48 -9 44 -36 94 -50 165 -45 64 5 189
51 250 93 57 39 68 38 101 -5 42 -55 136 -101 212 -104 99 -4 227 41 349 123
l42 29 35 -43 c78 -93 214 -118 347 -63 27 11 32 14 99 53 l45 26 35 -35 c51
-48 104 -73 164 -75 9 -1 17 -4 17 -8 0 -5 -30 -9 -68 -9 -65 -2 -192 -11
-242 -19 -14 -2 -50 -7 -80 -10 -30 -4 -64 -9 -75 -11 -10 -2 -35 -6 -55 -9
-20 -3 -47 -8 -60 -10 -14 -3 -45 -10 -70 -15 -76 -16 -82 -17 -190 -48 -302
-86 -442 -157 -513 -259 -88 -128 3 -282 176 -296 31 -3 57 -4 57 -2 0 2 -19
14 -42 28 -83 48 -138 116 -138 167 0 76 117 170 286 230 67 23 229 71 259 75
11 2 52 11 90 20 83 20 96 23 149 31 22 3 44 7 47 10 4 2 24 6 45 9 22 3 64
10 94 15 30 5 91 12 135 16 44 3 84 9 89 12 14 8 4 -6 -112 -162 -59 -78 -115
-153 -124 -166 -10 -14 -32 -45 -49 -69 -38 -53 -159 -243 -190 -297 -70 -123
-144 -295 -148 -344 -9 -103 -7 -129 10 -175 27 -72 71 -111 134 -119 28 -3
66 -9 85 -12 l35 -6 -48 32 c-91 62 -137 134 -137 221 0 110 132 377 326 656
35 50 70 97 76 105 7 7 24 30 38 50 14 21 28 38 33 38 4 0 7 7 7 15 0 8 3 15
8 15 4 0 44 49 90 109 45 60 90 111 100 113 45 10 492 -3 572 -17 14 -2 43 -7
65 -10 53 -8 155 -34 178 -47 10 -5 25 -24 32 -41 7 -18 24 -42 37 -54 l24
-23 12 34 c34 92 -19 145 -184 185 -125 31 -242 40 -522 42 -111 1 -201 3
-199 5 1 2 18 6 37 9 78 14 174 57 277 126 56 37 95 72 230 206 73 73 113 107
114 95 4 -100 52 -206 128 -281 14 -14 38 -40 52 -57 63 -77 165 -115 292
-110 45 2 96 7 112 11 44 11 227 86 245 100 8 7 24 15 35 19 25 9 281 181 369
248 121 92 130 118 92 273 -2 6 -6 28 -11 50 -11 56 -30 91 -65 116 -43 32
-55 70 -36 107 41 79 33 219 -17 299 -36 57 -193 213 -214 213 -11 0 -25 6
-31 13 -9 8 -44 12 -102 12 -50 0 -90 1 -90 3 0 1 40 55 89 120 241 319 489
733 614 1027 19 44 43 100 54 125 17 38 40 95 119 305 4 11 8 22 9 25 1 3 18
57 38 120 64 203 129 457 151 590 3 19 8 46 11 60 3 14 7 39 10 55 3 17 7 41
10 55 2 14 7 45 10 70 3 25 8 52 10 60 2 8 7 47 11 85 3 39 8 84 10 100 3 28
8 98 19 275 6 93 6 420 0 515 -6 107 -16 237 -20 270 -3 17 -7 53 -9 80 -8 82
-17 138 -62 405 -3 14 -18 84 -34 155 -35 151 -33 142 -54 220 -9 33 -18 67
-21 75 -6 24 -56 184 -62 200 -4 8 -7 17 -8 20 -6 25 -18 59 -25 75 -5 11 -16
43 -25 70 -9 28 -22 64 -29 80 -8 17 -37 86 -66 155 -48 113 -208 448 -220
460 -9 9 -51 85 -57 103 -3 9 -9 17 -13 17 -18 0 -171 -173 -220 -248 -29 -45
-56 -82 -60 -82 -3 0 -27 14 -53 30 -26 17 -50 30 -53 30 -3 0 -20 10 -37 22
-18 13 -34 22 -37 22 -3 -1 -22 7 -44 18 -21 11 -36 16 -33 11 127 -217 241
-443 321 -638 32 -77 61 -149 66 -160 31 -73 130 -392 133 -425 1 -11 6 -20
11 -20 5 0 7 -3 4 -6 -4 -3 -2 -20 3 -37 24 -80 77 -340 94 -459 13 -95 15
-112 21 -156 33 -271 38 -768 9 -1002 -2 -19 -6 -57 -9 -85 -10 -101 -18 -153
-47 -310 -36 -202 -31 -177 -72 -335 -135 -513 -339 -974 -626 -1410 -42 -63
-79 -119 -83 -125 -5 -5 -45 -59 -91 -120 -91 -122 -96 -128 -187 -234 -65
-77 -112 -128 -210 -230 -51 -53 -57 -57 -85 -49 -16 4 -49 9 -72 10 -24 2
-43 5 -43 8 0 3 6 28 13 55 30 112 0 228 -82 315 -23 25 -60 67 -84 93 -23 27
-60 68 -82 92 -22 24 -44 50 -50 57 -5 8 -18 24 -29 36 -18 21 -18 22 30 99
46 73 49 82 49 143 -1 52 -6 72 -25 102 -14 21 -35 43 -47 49 -13 7 -23 16
-23 20 0 5 -14 24 -30 43 -64 72 -180 83 -296 26 -109 -52 -196 -145 -344
-364 l-55 -81 -65 -1 c-95 -1 -137 -11 -165 -42 -39 -42 -137 -222 -142 -263
-6 -45 19 -102 57 -129 l28 -20 -76 -124 -77 -125 -151 0 c-84 0 -164 -5 -178
-11 -14 -5 -40 -24 -57 -41 l-31 -31 -26 25 c-15 13 -38 30 -52 38 -71 36
-225 44 -307 15 -39 -14 -126 -88 -211 -178 l-35 -38 -18 40 c-10 22 -35 57
-56 79 -91 93 -111 117 -113 136 -1 11 -1 22 0 25 1 3 3 19 5 35 5 66 33 235
54 325 5 25 12 56 14 70 6 30 56 219 64 240 3 8 7 22 8 30 2 17 5 27 65 215
22 72 45 139 49 150 5 11 23 61 41 110 110 309 419 949 467 969 6 3 27 0 47
-6 32 -10 40 -8 108 31 40 23 80 46 88 50 22 12 43 60 44 103 1 21 5 38 9 38
39 1 143 -99 198 -190 53 -87 87 -192 109 -340 10 -65 7 -341 -4 -358 -3 -5
-8 -33 -11 -62 -4 -30 -8 -57 -11 -61 -2 -4 -6 -24 -9 -45 -5 -31 -54 -200
-91 -314 -7 -20 122 119 187 201 18 24 36 46 39 49 9 8 74 111 96 150 10 19
22 37 27 38 4 2 7 9 7 15 0 7 7 26 16 42 23 44 64 191 71 255 36 311 -95 534
-437 745 -48 30 -50 33 -29 39 50 15 302 15 369 1 68 -15 177 -57 220 -85 127
-83 202 -143 311 -250 31 -30 66 -63 77 -74 l21 -18 -4 73 c-6 126 -31 204
-98 306 -53 80 -76 106 -137 155 -101 80 -229 136 -360 155 -57 9 -253 9 -305
0 -79 -12 -111 -19 -154 -33 -24 -8 -45 -13 -48 -11 -2 2 16 53 40 113 62 155
81 246 81 384 -1 103 -4 125 -32 208 -40 115 -97 206 -188 296 -62 61 -234
186 -256 186 -5 0 6 -19 25 -42 81 -101 160 -285 182 -423 28 -173 28 -339 0
-605 -2 -14 -3 -31 -4 -37 -1 -7 -5 -13 -9 -13 -5 0 -9 6 -9 13 0 6 -11 35
-23 62 -13 28 -24 52 -24 55 -1 3 -11 21 -24 41 -12 20 -22 39 -22 43 0 6 -89
137 -99 146 -3 3 -28 31 -55 63 -137 163 -353 299 -530 333 -49 10 -186 6
-239 -6 -61 -13 -170 -64 -214 -99 -40 -31 -41 -36 -7 -39 14 -1 51 -8 82 -16
32 -8 68 -17 82 -20 146 -28 352 -106 475 -180 164 -98 281 -222 373 -399 l41
-78 -47 5 c-26 4 -63 9 -82 12 -111 18 -246 5 -364 -35 -329 -110 -572 -439
-622 -842 -13 -102 -5 -265 16 -338 4 -16 6 -32 4 -35 -2 -4 0 -3 5 1 5 5 28
53 51 107 61 146 145 307 208 399 17 26 32 52 32 57 0 4 3 10 8 12 4 2 26 28
49 59 63 84 146 172 232 242 154 127 273 183 401 188 85 3 86 2 41 -38 -41
-37 -69 -97 -50 -108 17 -11 9 -41 -16 -63 -56 -49 -48 -115 16 -139 35 -13
36 -8 -45 -157 -158 -286 -340 -692 -426 -946 -12 -36 -26 -74 -31 -85 -41
-95 -161 -512 -210 -728 -11 -50 -23 -101 -25 -112 -3 -11 -8 -33 -11 -50 -8
-45 -11 -60 -13 -60 -1 0 -3 -13 -5 -30 -9 -69 -12 -72 -65 -78 -27 -3 -67
-13 -87 -22 -21 -9 -54 -23 -73 -32 -65 -27 -221 -133 -273 -185 -23 -23 -32
-23 -43 1 -5 11 -42 56 -83 100 -57 63 -89 89 -139 112 -60 29 -71 31 -146 27
-58 -3 -101 -13 -151 -33 -63 -25 -160 -83 -197 -117 -33 -31 -61 -52 -55 -42
4 6 -13 30 -36 52 -23 23 -52 55 -64 71 -29 37 -100 70 -158 73 -25 2 -45 4
-45 6 0 1 7 19 16 40 9 20 17 44 19 52 2 8 19 60 39 115 62 180 198 643 221
755 2 14 18 79 35 145 16 66 32 131 34 145 2 14 11 55 19 91 9 37 18 78 21 90
2 13 12 60 21 104 9 44 19 89 21 100 5 25 23 121 29 160 3 17 8 41 10 55 15
74 35 182 40 218 4 24 16 101 30 183 3 15 7 44 10 65 3 22 7 48 9 59 2 11 7
45 11 75 4 30 9 64 11 75 3 11 7 40 9 65 6 54 15 126 20 148 1 10 6 44 9 77 3
33 8 76 11 95 10 79 16 136 20 184 4 46 10 111 20 206 2 19 7 73 10 120 4 47
8 101 10 120 2 19 6 91 10 160 4 69 8 150 10 180 11 164 17 476 17 790 -2 541
-15 840 -58 1320 -5 47 -8 100 -9 118 0 17 -2 32 -5 32 -3 0 -6 27 -7 60 -3
73 11 86 103 93 76 6 118 29 143 79 26 53 17 152 -18 193 -44 52 -44 50 -2 96
87 95 87 186 -2 347 -16 30 -27 55 -25 57 14 14 227 -84 308 -141 255 -182
519 -598 671 -1059 74 -223 85 -265 104 -367 3 -16 12 -57 20 -93 9 -36 13
-70 10 -75 -4 -6 -2 -10 2 -10 5 0 9 -8 9 -17 1 -18 11 -87 19 -133 3 -14 7
-45 10 -70 3 -25 7 -61 10 -80 14 -113 23 -228 30 -405 3 -75 7 -141 10 -145
3 -5 2 -11 -3 -14 -5 -3 -7 -20 -5 -38 5 -40 5 -172 0 -331 -2 -78 1 -116 8
-114 11 4 131 176 164 235 73 131 185 384 196 440 2 9 4 18 5 20 2 1 4 7 5 12
1 6 4 12 5 15 1 3 3 8 5 13 1 4 4 14 8 22 6 17 46 170 53 204 8 42 24 133 30
171 14 101 19 191 19 350 0 213 -8 309 -40 460 -30 139 -27 130 -70 265 -16
50 -92 229 -119 280 -33 63 -117 203 -125 210 -3 3 -26 32 -51 65 -71 97 -154
184 -250 265 -36 30 -67 58 -70 61 -3 3 -39 28 -80 56 -165 111 -389 211 -580
259 -72 18 -76 19 -140 29 -78 13 -78 16 2 88 203 183 425 321 661 411 62 24
126 47 142 51 17 5 35 9 40 11 6 2 20 5 33 8 12 3 26 7 30 10 5 3 22 7 38 10
16 3 54 10 84 16 30 6 73 13 95 16 22 3 51 7 65 10 52 9 219 18 340 18 119 0
359 -12 370 -19 3 -1 37 -6 75 -10 100 -10 115 -11 165 -19 25 -4 59 -10 75
-12 36 -6 192 -34 220 -41 11 -2 29 -6 40 -7 49 -9 78 -15 243 -51 15 -4 22
-1 22 10 0 8 -4 15 -10 15 -5 0 -10 6 -10 14 0 29 -148 233 -229 315 -98 99
-112 111 -201 167 -106 68 -264 144 -329 159 -9 3 -43 12 -76 21 -80 22 -91
24 -210 40 -121 16 -390 2 -520 -26 -284 -63 -509 -136 -667 -217 -27 -13 -48
-22 -48 -19 0 3 -22 -8 -49 -24 -26 -17 -51 -30 -55 -30 -15 0 -268 -159 -274
-172 -2 -5 -8 -8 -13 -8 -6 0 -15 -4 -22 -10 -7 -5 -61 -49 -122 -97 -60 -48
-155 -131 -210 -184 -55 -54 -102 -96 -104 -94 -1 2 5 28 15 57 10 29 19 59
20 66 1 8 6 21 10 30 4 9 8 22 9 27 10 42 141 419 168 485 5 14 11 30 12 35 5
19 133 300 162 355 151 283 271 450 457 636 158 157 350 301 514 384 34 17 62
33 62 36 0 5 -25 5 -31 0z m-4739 -8856 c0 -5 -4 -10 -8 -10 -4 0 -23 -16 -42
-35 -19 -19 -39 -34 -45 -35 -12 0 -48 60 -40 68 2 3 26 7 52 10 27 2 50 6 52
8 9 8 31 4 31 -6z m-703 -162 c40 -78 96 -181 103 -188 3 -3 16 -25 29 -50 14
-25 29 -53 35 -62 9 -15 -9 -37 -111 -140 -166 -167 -295 -306 -426 -457 -31
-36 -62 -66 -69 -67 -7 -1 -49 -5 -93 -9 -99 -9 -125 -12 -200 -19 -94 -10
-156 -16 -215 -22 -30 -2 -74 -7 -97 -10 -49 -5 -83 12 -101 51 -6 13 -55 53
-109 88 -146 95 -210 177 -196 250 26 140 170 282 406 398 45 22 90 44 99 49
65 35 471 164 579 184 13 3 24 5 24 6 0 2 15 5 134 29 58 12 107 24 110 26 2
3 18 5 36 5 28 0 34 -6 62 -62z m7203 -762 c0 -7 11 -30 25 -50 13 -20 21 -37
17 -37 -4 -1 -27 -3 -52 -4 -25 0 -55 -5 -68 -9 -21 -7 -19 -1 20 57 40 61 58
74 58 43z"/>
<path d="M9515 12484 c61 -19 126 -41 145 -48 186 -72 264 -103 318 -128 34
-15 65 -28 67 -28 12 0 306 -151 388 -198 20 -12 54 -31 75 -43 20 -12 61 -36
90 -55 28 -19 78 -51 110 -71 62 -41 234 -163 242 -172 3 -3 23 -19 45 -35 38
-28 165 -133 250 -206 22 -19 124 -118 226 -221 203 -204 190 -196 331 -214
78 -9 352 -95 478 -149 10 -4 35 14 77 57 l61 62 -59 80 c-81 108 -97 129
-244 304 -86 103 -405 427 -495 503 -30 26 -71 61 -90 78 -19 18 -87 72 -150
122 -63 49 -122 95 -130 101 -16 13 -122 88 -154 110 -10 6 -36 24 -57 40 -21
15 -43 27 -48 27 -5 0 -11 4 -13 8 -3 8 -134 92 -143 92 -2 0 22 -52 55 -115
l60 -115 -32 6 c-18 3 -51 11 -73 16 -22 6 -48 12 -58 14 -10 2 -26 5 -35 8
-9 3 -33 8 -52 11 -19 3 -43 8 -52 11 -9 3 -25 7 -35 9 -10 2 -83 17 -163 34
-80 18 -158 34 -175 37 -16 2 -62 11 -100 19 -39 8 -88 17 -110 20 -71 10 -99
14 -135 19 -19 3 -73 10 -120 16 -92 12 -151 17 -305 24 l-100 5 110 -35z"/>
<path d="M13458 11484 c-2 -1 -26 -5 -55 -8 -205 -22 -478 -146 -703 -320
-101 -78 -117 -92 -253 -228 -70 -71 -130 -128 -133 -128 -3 0 -25 9 -50 20
-48 22 -96 41 -104 42 -3 0 -9 3 -15 8 -9 6 -200 70 -230 76 -5 1 -53 11 -106
23 -96 20 -122 25 -234 39 -73 9 -435 8 -490 -1 -22 -3 -60 -9 -85 -12 -62 -8
-222 -45 -240 -56 -12 -7 -11 -9 5 -9 11 -1 27 -3 35 -5 8 -1 35 -6 60 -10 83
-13 292 -55 374 -76 44 -11 89 -22 98 -24 207 -44 626 -199 884 -326 88 -43
163 -79 166 -79 3 0 28 30 56 68 95 128 341 347 605 539 177 130 645 433 668
433 14 0 11 20 -3 21 -7 0 -22 2 -33 5 -23 5 -213 12 -217 8z"/>
<path d="M11460 9928 c-57 -10 -94 -25 -146 -60 -48 -32 -126 -116 -157 -169
l-21 -36 -63 39 c-34 21 -69 38 -76 38 -8 0 -17 3 -21 7 -14 14 -108 31 -173
31 -80 0 -180 -26 -258 -66 -58 -30 -110 -64 -90 -60 9 2 123 -11 155 -17 8
-2 31 -6 50 -10 19 -4 40 -8 45 -9 6 -2 28 -6 50 -10 60 -12 238 -64 316 -93
l70 -26 37 43 c41 48 100 105 134 129 13 8 29 21 36 28 11 11 231 159 298 200
26 16 6 29 -61 39 -73 11 -76 11 -125 2z"/>
<path d="M10312 8320 c2 -4 45 -42 97 -86 191 -159 443 -428 606 -644 27 -36
49 -66 50 -68 1 -1 33 9 70 23 135 51 377 76 748 76 l218 0 -30 37 c-140 177
-354 250 -590 201 -31 -6 -61 -12 -68 -13 -7 -1 -16 -5 -19 -9 -4 -4 -13 -7
-19 -7 -7 0 -33 -9 -59 -20 -25 -12 -49 -21 -53 -21 -5 -1 -20 -9 -34 -20
l-26 -18 -17 42 c-58 140 -141 254 -252 347 -96 80 -289 159 -427 175 -86 10
-198 13 -195 5z"/>
<path d="M9264 3004 c-21 -15 -44 -34 -52 -43 -55 -69 -159 -223 -206 -306
l-57 -100 -47 -2 c-65 -3 -82 -5 -82 -13 0 -3 -17 -12 -37 -19 -24 -9 -72 -48
-131 -107 -91 -93 -254 -214 -260 -194 -2 6 27 54 66 108 103 144 114 171 87
198 -26 26 -114 0 -155 -46 -13 -14 -160 -142 -160 -139 0 2 23 48 50 102 40
79 48 102 40 118 -6 10 -18 19 -27 19 -9 0 -57 -42 -107 -93 -50 -51 -118
-114 -151 -139 -86 -65 -186 -128 -203 -128 -15 0 22 50 98 130 52 55 87 106
95 142 15 60 -73 89 -161 52 -201 -83 -385 -370 -266 -415 23 -9 47 -1 145 49
4 2 7 -7 7 -21 0 -36 26 -40 84 -14 56 26 209 122 269 169 20 16 37 28 37 25
0 -2 -24 -48 -54 -100 -54 -95 -54 -97 -37 -119 27 -33 27 -33 315 241 l59 56
-53 -78 c-82 -122 -94 -198 -34 -213 31 -8 52 0 123 46 61 40 61 40 61 15 0
-29 32 -65 58 -65 26 1 93 33 128 63 18 15 34 27 36 27 3 0 4 -16 4 -36 -1
-55 19 -62 85 -31 68 33 102 54 160 95 40 29 46 37 43 64 -2 17 -6 33 -8 35
-5 5 -149 -88 -154 -99 -2 -5 -10 -8 -17 -8 -7 0 -16 -6 -18 -12 -3 -8 -6 -6
-6 4 -1 9 83 142 186 295 292 435 303 452 310 483 7 38 -10 39 -63 4z m-1331
-520 c8 -8 -35 -65 -93 -124 -58 -58 -168 -150 -181 -150 -21 0 -24 2 -21 18
5 22 59 100 97 138 36 38 161 124 179 124 7 0 15 -3 19 -6z m957 -6 c0 -44
-251 -284 -285 -272 -17 7 -10 26 26 79 53 76 112 130 198 182 41 24 61 28 61
11z"/>
<path d="M7268 2763 c-61 -38 -25 -133 51 -133 17 0 60 34 62 48 0 4 2 16 4
26 4 23 -46 76 -72 76 -10 0 -30 -8 -45 -17z"/>
<path d="M11994 2586 c-17 -8 -55 -42 -85 -76 -88 -103 -133 -145 -245 -229
-97 -73 -144 -100 -144 -83 0 9 51 69 134 157 47 50 66 78 66 97 0 39 -14 42
-56 13 -59 -40 -97 -32 -63 14 26 35 32 73 16 95 -12 17 -15 16 -44 -8 -17
-14 -40 -46 -51 -70 -25 -52 -103 -124 -221 -202 -47 -32 -88 -61 -91 -64 -3
-4 -13 -10 -23 -13 -17 -6 -16 -3 4 31 39 66 141 187 207 246 46 41 45 52 -3
51 -43 0 -48 -4 -167 -125 -159 -160 -229 -223 -240 -212 -5 5 0 26 13 48 30
54 150 196 204 241 49 41 46 53 -16 53 -31 0 -44 -9 -97 -62 -33 -35 -71 -76
-84 -93 -31 -41 -41 -51 -90 -88 -82 -63 -107 -57 -51 12 21 25 40 48 44 51
16 12 57 108 57 132 -1 59 -64 76 -158 42 -28 -10 -50 -22 -50 -26 0 -4 -5 -8
-11 -8 -12 0 -71 -43 -109 -80 -69 -67 -140 -189 -140 -240 0 -10 10 -31 23
-46 21 -23 28 -26 64 -19 23 3 71 26 107 51 66 44 66 44 86 24 24 -24 45 -25
84 -5 35 19 47 19 40 2 -3 -8 0 -25 5 -40 19 -49 76 -45 156 9 30 20 33 21 30
4 -2 -10 2 -26 9 -35 11 -16 17 -16 52 -5 63 21 186 102 332 220 24 19 45 28
55 24 14 -5 8 -16 -32 -62 -75 -87 -88 -154 -37 -187 41 -27 95 0 274 137 57
43 104 78 106 78 2 0 15 -17 30 -38 33 -48 33 -77 0 -98 -24 -16 -27 -16 -52
3 -31 23 -66 33 -80 24 -5 -3 -13 -16 -16 -29 -6 -18 -1 -29 24 -52 26 -24 38
-28 78 -26 58 3 94 20 197 94 75 54 80 60 81 95 1 20 -2 37 -5 37 -3 0 -30
-18 -60 -40 l-54 -38 -31 46 c-18 26 -35 52 -39 58 -4 7 17 37 49 70 61 65 78
97 69 131 -6 26 -9 27 -51 9z m-1110 -113 c-3 -10 -14 -29 -24 -43 -18 -24
-20 -24 -33 -6 -31 43 -87 -11 -92 -90 -3 -39 -9 -53 -32 -71 -43 -35 -111
-68 -120 -60 -25 26 140 222 222 265 51 27 85 29 79 5z"/>
<path d="M6240 2546 c-181 -64 -377 -338 -292 -407 27 -21 60 -17 121 17 51
28 55 29 47 9 -9 -25 20 -45 54 -35 35 10 25 4 180 102 69 43 152 98 185 123
33 24 84 57 113 72 43 23 54 25 62 14 16 -27 -33 -111 -106 -184 -61 -61 -82
-67 -45 -14 26 38 28 46 15 51 -35 13 -81 -23 -115 -91 -32 -64 -33 -66 -14
-79 29 -22 112 -3 157 34 16 13 20 12 40 -13 20 -26 25 -27 80 -22 42 4 83 18
145 49 48 23 90 44 93 46 3 1 5 -11 4 -28 -3 -38 27 -68 61 -64 55 6 229 133
231 169 2 51 -11 49 -104 -14 -49 -33 -95 -61 -101 -61 -14 0 47 117 99 190
34 48 35 49 79 100 l40 45 -47 3 c-55 4 -64 -4 -162 -148 -66 -96 -105 -125
-250 -189 -108 -47 -122 -27 -60 82 29 52 111 147 126 147 4 0 3 -5 -4 -12
-20 -20 -14 -25 25 -21 43 5 59 16 79 56 22 42 25 64 8 77 -21 18 -76 4 -134
-35 l-50 -34 -26 25 c-20 21 -32 25 -62 21 -53 -6 -174 -72 -230 -125 -15 -13
-151 -107 -227 -155 -86 -55 -76 -24 28 87 87 92 112 136 108 187 -2 35 -85
49 -151 25z m60 -72 c0 -24 -191 -212 -263 -259 -28 -18 -41 -8 -30 22 12 32
92 131 136 167 48 39 126 86 145 86 6 0 12 -7 12 -16z"/>
<path d="M8268 1635 c-1 -2 -38 -6 -81 -10 -43 -3 -86 -8 -95 -10 -169 -36
-215 -49 -302 -87 -76 -33 -93 -41 -150 -76 -144 -90 -192 -198 -146 -333 22
-66 37 -80 114 -104 22 -6 21 -4 -12 47 -83 126 -62 232 67 335 56 44 200 102
342 137 132 33 200 41 320 40 169 -2 288 -53 331 -143 50 -103 -11 -215 -174
-322 -106 -70 -290 -133 -411 -142 -46 -4 -70 -11 -96 -31 -18 -14 -39 -26
-45 -26 -6 0 -8 -5 -5 -10 10 -16 177 2 285 30 316 81 525 249 522 420 -1 82
-15 120 -59 167 -26 28 -113 89 -113 79 0 -2 -21 2 -47 10 -27 8 -86 17 -133
20 -47 3 -90 7 -97 9 -6 2 -13 2 -15 0z"/>
<path d="M4226 1557 c3 -63 -26 -141 -81 -224 -20 -29 -102 -119 -182 -198
-122 -120 -152 -145 -177 -146 -17 -1 -42 -2 -56 -4 -14 -2 -54 -6 -90 -9 -36
-3 -81 -8 -100 -11 -19 -2 -55 -7 -80 -10 -25 -3 -53 -8 -62 -11 -10 -3 -18
-2 -18 3 0 5 89 100 199 211 109 111 211 221 226 242 34 48 41 110 17 138 -35
39 -73 48 -217 53 -37 1 -162 -18 -240 -36 -11 -3 -47 -11 -80 -19 -145 -33
-356 -122 -455 -191 -30 -21 -83 -62 -117 -92 -61 -53 -63 -56 -63 -103 l0
-48 73 72 c85 86 162 139 286 200 50 25 94 45 96 45 3 0 36 10 73 21 64 20 78
25 120 34 21 5 156 33 197 41 17 3 75 8 130 11 147 7 181 -18 125 -93 -30 -42
-55 -69 -308 -327 -186 -190 -183 -188 -284 -190 -21 -1 -38 -3 -38 -6 0 -7
-279 -4 -339 4 l-43 5 18 -22 c11 -12 25 -28 32 -35 14 -16 242 -20 365 -8
l67 7 -44 -64 c-57 -80 -92 -151 -105 -207 -10 -47 -3 -67 39 -112 14 -16 15
-14 14 30 -3 78 55 210 131 296 14 16 25 32 25 36 0 14 66 38 120 44 30 3 66
8 80 11 14 3 48 7 75 10 28 2 66 6 85 9 19 3 52 8 73 11 20 2 37 2 37 -1 0 -3
-14 -19 -30 -36 -58 -58 -160 -233 -160 -275 0 -10 -6 -30 -14 -45 -13 -25
-12 -28 16 -57 17 -17 32 -30 33 -29 2 2 5 21 8 43 9 61 37 147 58 177 11 14
19 30 19 35 0 10 84 117 130 164 l29 31 111 -5 c60 -3 110 -3 110 -1 0 2 -12
18 -27 34 -23 26 -33 30 -79 30 l-54 0 47 43 c179 161 293 306 319 402 17 63
15 86 -10 130 -15 25 -28 45 -29 45 -1 0 -2 -24 -1 -53z"/>
<path d="M11197 1603 c-1 -1 -54 -4 -117 -7 -63 -4 -133 -8 -155 -11 -22 -2
-66 -7 -99 -10 -32 -3 -68 -7 -80 -10 -11 -3 -32 -7 -46 -9 -14 -2 -36 -7 -50
-10 -14 -3 -41 -8 -60 -11 -83 -12 -227 -62 -304 -105 -99 -56 -147 -115 -151
-188 -4 -56 6 -84 43 -123 23 -25 38 -31 79 -34 l51 -3 -55 53 c-42 41 -56 61
-58 86 -7 84 79 158 250 218 70 24 273 67 360 76 33 4 74 8 90 10 17 2 66 7
110 10 l80 6 -30 -26 c-16 -14 -54 -47 -84 -73 -121 -104 -174 -156 -344 -334
-36 -38 -52 -48 -79 -49 -18 0 -42 -2 -53 -4 -11 -2 -44 -6 -73 -8 -50 -5 -85
-17 -50 -17 8 0 27 -9 42 -21 21 -16 36 -20 71 -16 25 2 45 0 45 -5 0 -4 -11
-26 -24 -47 -87 -137 -107 -287 -49 -360 85 -107 260 -99 459 21 38 22 71 44
74 48 5 7 215 158 246 177 15 9 8 10 -36 6 -46 -4 -67 -14 -135 -62 -124 -89
-280 -179 -319 -185 -6 -1 -16 -5 -23 -9 -23 -15 -130 -19 -166 -8 -98 33 -86
213 25 373 44 62 46 63 178 74 36 2 79 7 95 9 17 2 59 7 95 10 36 4 76 8 90
10 29 4 154 17 187 19 38 3 34 12 -16 35 -41 20 -57 22 -107 16 -61 -7 -87
-10 -189 -19 -33 -3 -76 -7 -95 -10 -99 -14 -130 -16 -130 -8 0 11 222 235
290 292 29 25 65 56 80 70 14 14 47 42 73 63 l47 38 219 1 c120 0 223 3 227 7
5 3 19 17 31 31 l22 25 -240 0 c-133 0 -241 -1 -242 -2z"/>
<path d="M6237 1563 c-1 -1 -58 -4 -127 -7 -69 -3 -141 -8 -160 -10 -19 -3
-62 -7 -95 -10 -33 -4 -71 -8 -85 -11 -14 -2 -41 -6 -60 -9 -19 -2 -42 -7 -50
-10 -8 -3 -26 -7 -40 -10 -59 -10 -150 -41 -220 -75 -116 -57 -188 -140 -192
-222 -2 -52 3 -67 38 -107 33 -40 39 -42 87 -41 44 0 49 2 33 12 -114 72 -130
153 -48 233 68 66 245 134 412 159 20 3 47 8 60 11 14 3 41 7 60 9 245 31 300
35 300 24 0 -4 -6 -12 -14 -16 -52 -30 -305 -267 -415 -389 -58 -63 -59 -64
-139 -71 -37 -3 -78 -7 -92 -8 -14 -2 -32 -4 -40 -4 -8 -1 5 -13 29 -27 35
-21 52 -25 87 -21 25 2 44 2 42 -2 -2 -3 -23 -41 -46 -84 -24 -43 -45 -86 -47
-95 -2 -9 -4 -17 -5 -17 -3 0 -10 -38 -16 -81 -3 -22 -1 -59 6 -82 9 -37 14
-42 39 -42 37 0 41 6 27 43 -18 46 -7 177 15 177 5 0 9 7 9 15 0 32 100 181
122 182 7 0 42 3 78 7 101 12 110 13 185 20 39 4 86 9 105 11 19 2 62 7 95 10
95 9 150 17 154 21 2 2 -5 7 -15 10 -10 4 -31 16 -46 26 -16 11 -31 17 -35 15
-5 -3 -39 -8 -78 -11 -108 -10 -121 -12 -133 -20 -7 -4 -12 -2 -12 4 0 6 -3 9
-8 6 -8 -5 -60 -13 -145 -21 -32 -4 -67 -8 -78 -10 -10 -2 -19 -1 -19 3 0 7
191 200 256 259 42 37 128 112 187 160 58 48 48 47 366 43 l124 -2 31 32 31
31 -258 -3 c-142 -2 -259 -4 -260 -5z"/>
<path d="M9160 1401 c-20 -21 -55 -67 -78 -102 -22 -35 -47 -71 -54 -79 -7 -8
-13 -17 -12 -20 1 -3 -10 -22 -23 -43 -13 -21 -32 -53 -42 -70 -80 -139 -99
-163 -167 -209 -106 -73 -167 -87 -157 -36 3 15 22 33 55 51 123 69 166 117
145 164 -31 69 -147 6 -222 -122 -32 -55 -40 -130 -16 -158 25 -30 89 -22 163
22 l67 39 -5 -28 c-11 -53 49 -60 118 -15 43 28 62 34 63 20 5 -35 19 -46 51
-42 19 3 46 12 60 22 24 16 26 16 31 -4 3 -13 13 -21 28 -21 25 0 151 77 265
161 109 81 140 95 140 64 0 -26 -31 -78 -74 -122 -46 -49 -67 -57 -37 -14 23
33 12 45 -25 28 -25 -11 -64 -75 -64 -106 0 -28 41 -28 95 -1 39 20 39 20 57
0 27 -29 85 -18 179 32 104 55 136 83 119 103 -11 13 -17 12 -54 -11 -102 -63
-196 -97 -196 -72 1 28 39 95 78 136 42 44 55 52 46 27 -4 -10 0 -13 17 -10
33 7 59 37 62 71 2 26 -1 29 -28 30 -18 1 -47 -10 -72 -27 -38 -25 -43 -26
-52 -11 -6 11 -22 17 -49 17 -42 0 -102 -36 -247 -145 -33 -25 -77 -56 -97
-69 -33 -19 -37 -20 -31 -5 3 10 14 25 22 34 97 99 126 147 116 187 -6 26 -29
30 -100 19 -29 -4 -106 -60 -156 -113 -62 -64 -76 -76 -134 -114 -81 -52 -90
-46 -51 30 57 112 135 231 233 356 19 23 82 122 96 151 30 58 -10 61 -63 5z
m-391 -379 c-13 -21 -71 -63 -77 -57 -6 6 69 75 80 75 5 0 3 -8 -3 -18z m505
9 c3 -5 -31 -47 -77 -93 -111 -111 -167 -141 -131 -69 22 44 103 125 150 149
45 24 51 25 58 13z"/>
<path d="M12370 1433 c-37 -14 -93 -87 -195 -258 -105 -175 -158 -255 -180
-269 -23 -15 -24 -15 -18 18 5 34 -20 106 -38 106 -18 0 -8 32 27 81 l35 50
-33 -3 c-25 -2 -39 -13 -63 -45 -26 -37 -34 -42 -61 -38 -24 3 -37 -2 -59 -25
l-29 -30 42 0 42 0 -26 -42 c-15 -24 -35 -51 -45 -61 -21 -20 -176 -97 -196
-97 -38 0 2 86 76 160 24 25 39 38 32 29 -9 -13 -9 -18 1 -22 34 -12 72 25 84
81 7 34 -77 20 -120 -20 -19 -17 -22 -17 -32 -3 -18 24 -72 27 -113 6 -20 -11
-75 -48 -123 -83 -86 -63 -87 -65 -72 -87 16 -22 16 -22 38 -3 38 36 186 132
202 132 31 0 -6 -82 -60 -135 -66 -64 -77 -65 -34 -3 l18 26 -25 -2 c-13 -2
-31 -9 -39 -15 -21 -18 -59 -99 -51 -111 10 -16 57 -12 99 11 36 19 39 19 51
2 17 -23 71 -24 118 -1 20 10 37 16 37 13 0 -3 12 2 27 12 18 12 -15 -44 -105
-180 -73 -108 -132 -199 -132 -202 0 -3 15 -5 33 -5 30 1 37 8 121 138 199
305 277 421 286 427 10 6 27 -23 25 -45 -4 -49 -73 -120 -143 -146 -1 -1 4
-12 11 -26 12 -24 15 -25 38 -12 13 7 32 13 42 14 9 0 17 5 17 10 0 6 8 10 17
10 9 0 24 6 32 14 9 7 26 17 37 20 18 6 21 3 19 -19 -4 -32 22 -47 62 -36 33
10 84 39 95 55 4 6 11 -2 17 -16 5 -15 18 -31 28 -36 23 -13 81 6 127 41 30
24 34 24 49 10 14 -14 22 -15 57 -4 22 6 40 16 40 21 0 6 6 10 13 10 6 0 43
24 81 54 76 59 119 66 68 12 -66 -70 -77 -111 -42 -146 23 -23 46 -16 114 32
41 29 56 29 56 -2 0 -53 89 -51 183 4 86 51 107 70 100 96 -3 11 -7 20 -9 20
-2 0 -37 -22 -79 -49 -81 -53 -133 -71 -145 -51 -12 19 0 49 22 56 28 8 130
78 158 107 31 33 34 74 6 93 -46 30 -114 -10 -191 -113 -43 -58 -162 -159
-174 -147 -6 6 24 46 87 113 59 63 64 74 49 99 -7 9 -14 8 -34 -8 -14 -11 -32
-20 -39 -20 -16 0 -19 21 -5 36 16 16 17 74 2 74 -15 0 -61 -49 -61 -66 0 -16
-96 -112 -107 -106 -3 2 -9 0 -12 -5 -11 -14 -91 -66 -96 -61 -2 2 16 31 40
64 44 57 63 109 52 138 -3 8 -20 17 -37 21 -52 11 -147 -42 -217 -121 -48 -54
-176 -154 -197 -154 -19 0 20 88 76 173 21 32 38 60 38 62 0 2 42 62 94 132
101 139 160 236 149 246 -7 8 -12 8 -33 0z m70 -402 c0 -29 -26 -47 -46 -30
-14 11 -20 10 -40 -14 -15 -18 -24 -41 -24 -62 0 -25 -7 -39 -27 -54 -16 -12
-34 -26 -40 -31 -7 -6 -13 -8 -13 -4 0 3 -6 1 -13 -5 -8 -6 -16 -8 -19 -5 -8
8 3 44 13 44 5 0 9 4 9 10 0 24 89 115 142 145 52 30 58 30 58 6z m499 -8
c-17 -22 -38 -40 -64 -55 -19 -10 -19 -10 -5 8 22 27 64 63 74 64 5 0 2 -8 -5
-17z"/>
<path d="M13037 1343 c-3 -3 -2 -71 6 -308 l4 -100 29 -3 29 -3 3 133 c2 73 4
166 6 206 3 60 1 72 -13 73 -9 0 -26 2 -39 3 -12 2 -24 1 -25 -1z"/>
<path d="M8245 1327 c-116 -45 -288 -168 -398 -282 -52 -54 -122 -161 -147
-226 -26 -64 -32 -173 -15 -233 11 -38 15 -41 50 -44 33 -3 37 -1 30 15 -31
75 -28 184 7 263 l24 54 38 -68 c64 -114 132 -186 221 -232 85 -44 157 -59
265 -55 l35 1 -34 27 c-22 18 -49 28 -75 30 -74 5 -188 56 -249 112 -69 63
-166 228 -150 254 26 42 120 133 194 187 30 22 60 44 67 50 7 6 73 41 148 77
74 36 133 67 132 68 -12 10 -119 11 -143 2z"/>
<path d="M4672 1100 c-12 -12 -31 -37 -41 -58 -21 -40 -191 -212 -210 -212
-26 0 46 104 130 188 34 34 60 62 58 63 -2 1 -19 2 -37 3 -34 2 -43 -6 -174
-151 -20 -22 -87 -71 -129 -93 -20 -11 -20 -11 -5 17 9 15 40 55 71 87 50 55
79 116 62 133 -14 13 -74 18 -102 9 -92 -32 -205 -145 -229 -229 -27 -93 12
-108 127 -49 4 2 7 0 6 -5 -8 -44 28 -44 103 1 50 30 56 32 53 15 -5 -22 26
-59 47 -55 40 7 95 47 167 123 59 61 85 82 94 75 6 -5 20 -8 30 -7 21 4 21 3
-3 -45 -41 -80 -19 -150 48 -150 42 0 71 12 152 65 58 38 69 50 68 70 -1 14
-5 25 -8 25 -3 0 -29 -16 -57 -35 -29 -19 -57 -35 -63 -35 -5 0 -10 -4 -10 -8
0 -15 -79 -37 -91 -25 -21 21 2 51 74 93 120 70 157 130 102 166 -20 13 -30
14 -58 5 -19 -7 -43 -21 -52 -31 -20 -22 -91 -47 -102 -37 -3 4 2 22 12 41 17
32 16 66 -3 66 -4 0 -18 -9 -30 -20z m-342 -73 c0 -27 -180 -197 -209 -197
-15 0 -14 4 9 47 24 45 99 116 149 143 43 23 51 24 51 7z m510 -27 c-24 -22
-47 -37 -49 -34 -8 7 68 74 83 74 6 -1 -9 -18 -34 -40z"/>
<path d="M6727 1031 c-61 -61 -257 -213 -257 -198 0 26 66 110 168 215 28 29
28 32 -6 32 -23 0 -54 -26 -163 -132 -98 -97 -135 -127 -137 -115 -5 25 60
117 130 183 33 31 58 58 56 60 -2 1 -16 5 -30 8 -21 3 -35 -3 -65 -32 -56 -55
-103 -110 -103 -122 0 -5 -3 -10 -7 -10 -16 0 -44 -78 -41 -111 3 -30 7 -34
36 -37 20 -2 45 5 66 17 34 21 34 21 39 1 6 -25 38 -26 80 -2 18 9 34 19 37
22 3 3 30 22 60 42 30 20 68 47 83 59 28 21 27 20 -13 -56 -37 -70 -40 -79
-26 -93 13 -14 19 -11 58 21 24 19 78 69 121 110 75 72 97 86 57 34 -21 -27
-49 -87 -55 -119 -2 -10 5 -24 17 -32 25 -18 49 -10 122 39 87 60 89 62 82 89
l-6 26 -48 -34 c-26 -18 -59 -41 -75 -51 -26 -17 -27 -17 -21 1 4 11 20 35 36
55 15 20 28 42 28 48 0 6 4 11 8 11 5 0 19 20 32 45 26 50 17 75 -25 71 -26
-3 -105 -59 -145 -101 -14 -15 -33 -31 -42 -36 -13 -7 -12 0 7 34 13 23 31 59
39 79 15 35 15 38 -2 47 -16 8 -31 -3 -95 -68z"/>
<path d="M7088 872 c-32 -3 -38 -7 -39 -28 -1 -23 -3 -34 -9 -51 -1 -5 -2 -11
-2 -14 1 -3 -6 -28 -14 -54 -18 -63 -18 -65 10 -63 17 2 30 13 41 38 27 55 64
169 57 172 -4 2 -24 2 -44 0z"/>
<path d="M9853 872 c-29 -3 -33 -7 -39 -40 -3 -20 -12 -55 -19 -77 -7 -22 -15
-53 -19 -69 -6 -26 -5 -28 16 -22 13 3 26 6 29 6 6 0 59 120 63 142 1 7 4 18
7 23 14 24 16 42 6 41 -7 -1 -26 -2 -44 -4z"/>
<path d="M13035 836 c-13 -19 -14 -28 -4 -50 17 -36 71 -37 87 -1 28 61 -47
107 -83 51z"/>
</g>
</svg>
