<?xml version="1.0" standalone="no"?>
<!DOCTYPE svg PUBLIC "-//W3C//DTD SVG 20010904//EN"
 "http://www.w3.org/TR/2001/REC-SVG-20010904/DTD/svg10.dtd">
<svg version="1.0" xmlns="http://www.w3.org/2000/svg"
 width="100.000000pt" height="100.000000pt" viewBox="0 0 100.000000 100.000000"
 preserveAspectRatio="xMidYMid meet">
<metadata>
Created by potrace 1.14, written by Peter Selinger 2001-2017
</metadata>
<g transform="translate(0.000000,100.000000) scale(0.100000,-0.100000)"
fill="#000000" stroke="none">
<path d="M298 772 c-32 -4 -73 -49 -95 -103 -13 -33 -18 -37 -41 -33 -15 3
-35 -1 -46 -9 -26 -19 -14 -47 21 -47 l27 0 -31 -32 c-18 -18 -36 -45 -42 -59
-14 -38 -14 -358 0 -375 14 -18 120 -19 137 -2 7 7 12 21 12 32 0 21 5 21 260
21 255 0 260 0 260 -20 0 -12 5 -26 12 -33 17 -17 123 -16 137 2 15 17 14 337
-1 375 -5 14 -23 41 -41 59 l-31 32 27 0 c35 0 47 28 21 47 -10 8 -30 12 -44
9 -22 -4 -28 2 -48 43 -13 27 -34 59 -48 72 -25 24 -29 24 -222 24 -108 1
-209 -1 -224 -3z m416 -52 c16 -12 56 -81 56 -95 0 -3 -121 -5 -270 -5 -148 0
-270 2 -270 5 0 12 39 82 52 92 20 17 50 19 239 18 136 0 180 -4 193 -15z
m-15 -210 l-63 -70 -136 0 -136 0 -63 70 -62 70 261 0 261 0 -62 -70z m-447
-7 c23 -26 55 -60 70 -75 l26 -28 152 0 152 0 26 28 c15 15 46 49 70 75 24 26
48 47 55 46 7 0 26 -17 42 -36 27 -33 30 -43 32 -117 1 -74 -8 -160 -19 -171
-11 -11 -169 -20 -358 -20 -216 0 -348 9 -363 24 -5 5 -10 63 -11 128 -1 119
-1 119 29 155 17 20 35 37 42 37 6 1 31 -20 55 -46z m-54 -346 c3 -14 -4 -17
-37 -17 -36 0 -41 3 -41 23 0 22 3 23 37 18 25 -4 39 -12 41 -24z m682 8 c0
-22 -4 -25 -40 -25 -32 0 -40 4 -40 18 0 13 9 18 32 20 18 2 34 5 37 7 9 9 11
5 11 -20z"/>
<path d="M155 484 c-9 -9 -15 -26 -13 -38 3 -18 11 -21 62 -24 36 -2 63 1 70
9 8 8 8 13 -1 16 -7 2 -28 15 -48 29 -42 28 -48 29 -70 8z"/>
<path d="M771 475 c-19 -14 -40 -27 -45 -29 -22 -9 20 -26 64 -26 58 0 74 11
65 41 -14 45 -35 48 -84 14z"/>
<path d="M265 350 c-11 -5 -40 -9 -64 -9 l-44 -1 6 -37 c8 -44 32 -72 48 -56
8 8 8 17 0 32 -11 19 -9 21 14 21 37 0 97 28 93 42 -6 16 -27 19 -53 8z"/>
<path d="M687 354 c-4 -4 -7 -11 -7 -16 0 -13 64 -38 95 -38 23 0 25 -2 14
-21 -8 -16 -8 -24 1 -33 16 -16 50 28 50 65 0 27 -3 29 -37 30 -38 1 -49 2
-88 14 -11 3 -24 3 -28 -1z"/>
<path d="M328 269 c-42 -24 -11 -29 179 -29 195 0 196 0 178 20 -17 18 -31 20
-179 20 -91 0 -169 -5 -178 -11z"/>
</g>
</svg>
